<svg width="178" height="312" viewBox="0 0 178 312" fill="none" xmlns="http://www.w3.org/2000/svg">
<path d="M114.825 76.0552L91.9528 78.6569C92.2651 71.6243 91.6712 65.0645 89.3538 59.4041L108.067 52.6395C106.39 59.6426 109.539 67.6308 114.825 76.0552Z" fill="#FFB8B8"/>
<path d="M117.583 154.152L124.992 167.391C125.437 168.186 125.719 169.063 125.823 169.969C125.927 170.875 125.85 171.792 125.596 172.668C125.343 173.544 124.918 174.36 124.346 175.07C123.774 175.78 123.067 176.369 122.266 176.803V176.803C121.268 177.344 120.151 177.628 119.016 177.632C117.882 177.635 116.764 177.357 115.762 176.822C114.761 176.288 113.908 175.513 113.278 174.568C112.649 173.623 112.263 172.536 112.155 171.405L110.951 158.753L106.846 110.46L99.845 78.6947L114.381 74.5638L121.147 110.285L117.583 154.152Z" fill="#FFB8B8"/>
<path d="M129.899 295.122L120.543 294.602L99.75 201.98L55.5659 295.122L46.2092 294.602L73.2395 150.985L73.7593 124.968L107.547 122.887C120.175 136.789 127.327 151.166 128.34 166.076L129.899 295.122Z" fill="#2F2E41"/>
<path d="M54.8073 311.385C53.0362 312.194 51.3335 305.444 50.0587 307.108C45.7778 312.695 35.8108 310.943 35.8554 310.297C35.5188 310.189 35.2077 310.013 34.9409 309.781C34.6741 309.549 34.4572 309.265 34.3032 308.946C34.1493 308.628 34.0616 308.281 34.0453 307.928C34.0291 307.574 34.0848 307.221 34.2089 306.89V306.89C34.3575 306.493 34.6 306.139 34.9157 305.857C35.2314 305.575 35.6108 305.374 36.0212 305.271L40.4653 304.159L47.4432 291.875L54.5666 291.393C56.1547 293.42 57.263 295.78 57.8082 298.298C58.3534 300.815 58.3213 303.423 57.7143 305.926C57.0679 308.567 56.0699 310.808 54.8073 311.385Z" fill="#2F2E41"/>
<path d="M128.662 311.385C126.891 312.194 125.189 305.444 123.914 307.108C118.982 313.542 109.378 311.321 109.71 310.297C109.374 310.189 109.063 310.013 108.796 309.781C108.529 309.549 108.312 309.265 108.158 308.946C108.004 308.628 107.917 308.281 107.9 307.928C107.884 307.574 107.94 307.221 108.064 306.89V306.89C108.213 306.493 108.455 306.139 108.771 305.857C109.087 305.575 109.466 305.374 109.876 305.271L114.32 304.159L121.298 291.875L128.903 290.911L129.095 291.226C130.565 293.597 131.513 296.256 131.876 299.024C132.238 301.791 132.006 304.604 131.196 307.275C130.564 309.304 129.703 310.909 128.662 311.385Z" fill="#2F2E41"/>
<path d="M94.0321 64.0872C102.932 64.0872 110.146 56.8652 110.146 47.9564C110.146 39.0476 102.932 31.8256 94.0321 31.8256C85.1325 31.8256 77.918 39.0476 77.918 47.9564C77.918 56.8652 85.1325 64.0872 94.0321 64.0872Z" fill="#FFB8B8"/>
<path d="M108.587 125.488L73.7595 127.57L70.6406 107.796C67.412 98.908 71.4473 90.7427 77.918 82.8197L91.4331 67.7296L110.146 67.2093C112.665 68.0373 114.897 69.5654 116.581 71.6152C118.265 73.665 119.331 76.152 119.657 78.7858C121.005 89.848 118.989 101.06 113.87 110.957L108.587 125.488Z" fill="#6FCF97"/>
<path d="M71.1582 166.012L73.6503 180.98C73.8001 181.879 73.7697 182.8 73.5609 183.687C73.3521 184.575 72.9691 185.412 72.4342 186.15C71.8992 186.888 71.2229 187.513 70.4448 187.987C69.6666 188.461 68.8021 188.775 67.9014 188.912V188.912C66.7794 189.082 65.6327 188.972 64.5638 188.59C63.495 188.209 62.5371 187.568 61.7758 186.726C61.0145 185.883 60.4735 184.865 60.201 183.762C59.9285 182.66 59.9331 181.506 60.2144 180.406L63.361 168.093L75.8365 121.262L79.995 89L95.0697 90.0407L89.3517 125.945L71.1582 166.012Z" fill="#FFB8B8"/>
<path d="M113.356 110.138H112.984C105.955 104.041 99.8464 97.2065 104.779 88.6498C100.596 78.0204 95.9317 66.9821 96.2135 60.1533C96.422 55.1025 94.953 50.0703 91.6689 46.2301C87.2233 41.0317 86.2338 38.7101 78.1145 40.676C78.0856 38.5886 78.4809 36.5171 79.2764 34.5874C80.0719 32.6577 81.251 30.91 82.742 29.4505C84.2331 27.991 86.0051 26.8502 87.9502 26.0975C89.8954 25.3447 91.9731 24.9956 94.0571 25.0715L99.1298 25.2561C103.01 25.3974 115.412 26.9853 118.075 29.5487C119.425 30.8921 120.446 32.5295 121.06 34.3333C121.673 36.137 121.862 38.0583 121.611 39.9471C121.114 44.1855 122.449 47.9277 126.018 51.0657C132.851 58.1383 135.669 65.4769 131.795 73.2588C128.871 81.4971 129.011 88.2782 136.553 91.5381C139.003 100.949 123.071 110.138 113.356 110.138Z" fill="#2F2E41"/>
<path d="M96.1115 98.9505C89.6592 94.0093 83.2462 93.619 76.8784 98.4302L78.6173 78.6708C78.5692 75.8783 79.6094 73.1768 81.5173 71.139C83.4252 69.1011 86.0509 67.8871 88.8377 67.7542V67.7542C90.3035 67.6844 91.7681 67.9161 93.1408 68.4352C94.5136 68.9543 95.7655 69.7497 96.819 70.7723C97.8726 71.7948 98.7054 73.0228 99.2662 74.3802C99.8269 75.7377 100.104 77.1959 100.079 78.6646L96.1115 98.9505Z" fill="#27AE60"/>
<path d="M94.292 54.9811C95.4403 54.9811 96.3712 53.2338 96.3712 51.0785C96.3712 48.9231 95.4403 47.1759 94.292 47.1759C93.1437 47.1759 92.2128 48.9231 92.2128 51.0785C92.2128 53.2338 93.1437 54.9811 94.292 54.9811Z" fill="#FFB8B8"/>
<path d="M98.9704 42.1108V24.8009C98.9704 24.3869 98.8061 23.9898 98.5137 23.6971C98.2212 23.4043 97.8246 23.2399 97.411 23.2399H94.2921C93.8785 23.2399 93.4819 23.4043 93.1894 23.6971C92.897 23.9898 92.7326 24.3869 92.7326 24.8009V41.0667C90.4264 41.4414 88.3282 42.624 86.8122 44.4035C85.2961 46.1831 84.4608 48.4438 84.4552 50.7826C84.4497 53.1213 85.2742 55.386 86.7818 57.1728C88.2893 58.9595 90.3819 60.1521 92.6863 60.5378C94.9907 60.9235 97.357 60.4773 99.3632 59.2787C101.369 58.0801 102.885 56.2071 103.64 53.9938C104.395 51.7804 104.34 49.3706 103.484 47.1942C102.629 45.0177 101.029 43.2162 98.9704 42.1108V42.1108Z" fill="#6FCF97"/>
<path d="M94.8117 55.5014C97.3955 55.5014 99.4901 53.4047 99.4901 50.8183C99.4901 48.2319 97.3955 46.1351 94.8117 46.1351C92.228 46.1351 90.1334 48.2319 90.1334 50.8183C90.1334 53.4047 92.228 55.5014 94.8117 55.5014Z" fill="white"/>
</svg>
