<svg width="218" height="39" viewBox="0 0 218 39" fill="none" xmlns="http://www.w3.org/2000/svg">
<path d="M29.5256 18.9616L1.30217 3.82234C1.1702 3.75155 1.0205 3.71429 0.868115 3.71429C0.715729 3.71429 0.566028 3.75155 0.434057 3.82234C0.302087 3.89313 0.192496 3.99495 0.116303 4.11756C0.0401102 4.24017 6.15311e-08 4.37926 0 4.52084V34.7993C6.15311e-08 34.9409 0.0401102 35.08 0.116303 35.2026C0.192496 35.3252 0.302087 35.427 0.434057 35.4978C0.566028 35.5686 0.715729 35.6058 0.868115 35.6058C1.0205 35.6058 1.1702 35.5686 1.30217 35.4978L29.5256 20.3586C29.6576 20.2878 29.7672 20.186 29.8434 20.0633C29.9196 19.9407 29.9597 19.8016 29.9597 19.6601C29.9597 19.5185 29.9196 19.3794 29.8434 19.2568C29.7672 19.1342 29.6576 19.0324 29.5256 18.9616L1.30217 3.82234C1.1702 3.75155 1.0205 3.71429 0.868115 3.71429C0.715729 3.71429 0.566028 3.75155 0.434057 3.82234C0.302087 3.89313 0.192496 3.99495 0.116303 4.11756C0.0401102 4.24017 6.15311e-08 4.37926 0 4.52084V34.7993C6.15311e-08 34.9409 0.0401102 35.08 0.116303 35.2026C0.192496 35.3252 0.302087 35.427 0.434057 35.4978C0.566028 35.5686 0.715729 35.6058 0.868115 35.6058C1.0205 35.6058 1.1702 35.5686 1.30217 35.4978L29.5256 20.3586C29.6576 20.2878 29.7672 20.186 29.8434 20.0633C29.9196 19.9407 29.9597 19.8016 29.9597 19.6601C29.9597 19.5185 29.9196 19.3794 29.8434 19.2568C29.7672 19.1342 29.6576 19.0324 29.5256 18.9616Z" fill="#6FCF97"/>
<path d="M51.3457 22.9805V33H47.9707V7.40625H57.4102C60.2109 7.40625 62.4023 8.12109 63.9844 9.55078C65.5781 10.9805 66.375 12.873 66.375 15.2285C66.375 17.7129 65.5957 19.6289 64.0371 20.9766C62.4902 22.3125 60.2695 22.9805 57.375 22.9805H51.3457ZM51.3457 20.2207H57.4102C59.2148 20.2207 60.5977 19.7988 61.5586 18.9551C62.5195 18.0996 63 16.8691 63 15.2637C63 13.7402 62.5195 12.5215 61.5586 11.6074C60.5977 10.6934 59.2793 10.2188 57.6035 10.1836H51.3457V20.2207ZM69.0645 23.3145C69.0645 21.4512 69.4277 19.7754 70.1543 18.2871C70.8926 16.7988 71.9121 15.6504 73.2129 14.8418C74.5254 14.0332 76.0195 13.6289 77.6953 13.6289C80.2852 13.6289 82.377 14.5254 83.9707 16.3184C85.5762 18.1113 86.3789 20.4961 86.3789 23.4727V23.7012C86.3789 25.5527 86.0215 27.2168 85.3066 28.6934C84.6035 30.1582 83.5898 31.3008 82.2656 32.1211C80.9531 32.9414 79.4414 33.3516 77.7305 33.3516C75.1523 33.3516 73.0605 32.4551 71.4551 30.6621C69.8613 28.8691 69.0645 26.4961 69.0645 23.543V23.3145ZM72.334 23.7012C72.334 25.8105 72.8203 27.5039 73.793 28.7812C74.7773 30.0586 76.0898 30.6973 77.7305 30.6973C79.3828 30.6973 80.6953 30.0527 81.668 28.7637C82.6406 27.4629 83.127 25.6465 83.127 23.3145C83.127 21.2285 82.6289 19.541 81.6328 18.252C80.6484 16.9512 79.3359 16.3008 77.6953 16.3008C76.0898 16.3008 74.7949 16.9395 73.8105 18.2168C72.8262 19.4941 72.334 21.3223 72.334 23.7012ZM89.666 23.332C89.666 20.4141 90.3574 18.0703 91.7402 16.3008C93.123 14.5195 94.9336 13.6289 97.1719 13.6289C99.3984 13.6289 101.162 14.3906 102.463 15.9141V6H105.715V33H102.727L102.568 30.9609C101.268 32.5547 99.457 33.3516 97.1367 33.3516C94.9336 33.3516 93.1348 32.4492 91.7402 30.6445C90.3574 28.8398 89.666 26.4844 89.666 23.5781V23.332ZM92.918 23.7012C92.918 25.8574 93.3633 27.5449 94.2539 28.7637C95.1445 29.9824 96.375 30.5918 97.9453 30.5918C100.008 30.5918 101.514 29.666 102.463 27.8145V19.0781C101.49 17.2852 99.9961 16.3887 97.9805 16.3887C96.3867 16.3887 95.1445 17.0039 94.2539 18.2344C93.3633 19.4648 92.918 21.2871 92.918 23.7012ZM118.67 33.3516C116.092 33.3516 113.994 32.5078 112.377 30.8203C110.76 29.1211 109.951 26.8535 109.951 24.0176V23.4199C109.951 21.5332 110.309 19.8516 111.023 18.375C111.75 16.8867 112.758 15.7266 114.047 14.8945C115.348 14.0508 116.754 13.6289 118.266 13.6289C120.738 13.6289 122.66 14.4434 124.031 16.0723C125.402 17.7012 126.088 20.0332 126.088 23.0684V24.4219H113.203C113.25 26.2969 113.795 27.8145 114.838 28.9746C115.893 30.123 117.229 30.6973 118.846 30.6973C119.994 30.6973 120.967 30.4629 121.764 29.9941C122.561 29.5254 123.258 28.9043 123.855 28.1309L125.842 29.6777C124.248 32.127 121.857 33.3516 118.67 33.3516ZM118.266 16.3008C116.953 16.3008 115.852 16.7812 114.961 17.7422C114.07 18.6914 113.52 20.0273 113.309 21.75H122.836V21.5039C122.742 19.8516 122.297 18.5742 121.5 17.6719C120.703 16.7578 119.625 16.3008 118.266 16.3008ZM149.203 24.8789C148.887 27.5859 147.885 29.6777 146.197 31.1543C144.521 32.6191 142.289 33.3516 139.5 33.3516C136.477 33.3516 134.051 32.2676 132.223 30.0996C130.406 27.9316 129.498 25.0312 129.498 21.3984V18.9375C129.498 16.5586 129.92 14.4668 130.764 12.6621C131.619 10.8574 132.826 9.47461 134.385 8.51367C135.943 7.54102 137.748 7.05469 139.799 7.05469C142.518 7.05469 144.697 7.81641 146.338 9.33984C147.979 10.8516 148.934 12.9492 149.203 15.6328H145.811C145.518 13.5938 144.879 12.1172 143.895 11.2031C142.922 10.2891 141.557 9.83203 139.799 9.83203C137.643 9.83203 135.949 10.6289 134.719 12.2227C133.5 13.8164 132.891 16.084 132.891 19.0254V21.5039C132.891 24.2812 133.471 26.4902 134.631 28.1309C135.791 29.7715 137.414 30.5918 139.5 30.5918C141.375 30.5918 142.811 30.1699 143.807 29.3262C144.814 28.4707 145.482 26.9883 145.811 24.8789H149.203ZM165.059 33C164.871 32.625 164.719 31.957 164.602 30.9961C163.09 32.5664 161.285 33.3516 159.188 33.3516C157.312 33.3516 155.771 32.8242 154.564 31.7695C153.369 30.7031 152.771 29.3555 152.771 27.7266C152.771 25.7461 153.521 24.2109 155.021 23.1211C156.533 22.0195 158.654 21.4688 161.385 21.4688H164.549V19.9746C164.549 18.8379 164.209 17.9355 163.529 17.2676C162.85 16.5879 161.848 16.248 160.523 16.248C159.363 16.248 158.391 16.541 157.605 17.127C156.82 17.7129 156.428 18.4219 156.428 19.2539H153.158C153.158 18.3047 153.492 17.3906 154.16 16.5117C154.84 15.6211 155.754 14.918 156.902 14.4023C158.062 13.8867 159.334 13.6289 160.717 13.6289C162.908 13.6289 164.625 14.1797 165.867 15.2812C167.109 16.3711 167.754 17.877 167.801 19.7988V28.5527C167.801 30.2988 168.023 31.6875 168.469 32.7188V33H165.059ZM159.662 30.5215C160.682 30.5215 161.648 30.2578 162.562 29.7305C163.477 29.2031 164.139 28.5176 164.549 27.6738V23.7715H162C158.016 23.7715 156.023 24.9375 156.023 27.2695C156.023 28.2891 156.363 29.0859 157.043 29.6602C157.723 30.2344 158.596 30.5215 159.662 30.5215ZM183.973 27.9551C183.973 27.0762 183.639 26.3965 182.971 25.916C182.314 25.4238 181.16 25.002 179.508 24.6504C177.867 24.2988 176.561 23.877 175.588 23.3848C174.627 22.8926 173.912 22.3066 173.443 21.627C172.986 20.9473 172.758 20.1387 172.758 19.2012C172.758 17.6426 173.414 16.3242 174.727 15.2461C176.051 14.168 177.738 13.6289 179.789 13.6289C181.945 13.6289 183.691 14.1855 185.027 15.2988C186.375 16.4121 187.049 17.8359 187.049 19.5703H183.779C183.779 18.6797 183.398 17.9121 182.637 17.2676C181.887 16.623 180.938 16.3008 179.789 16.3008C178.605 16.3008 177.68 16.5586 177.012 17.0742C176.344 17.5898 176.01 18.2637 176.01 19.0957C176.01 19.8809 176.32 20.4727 176.941 20.8711C177.562 21.2695 178.682 21.6504 180.299 22.0137C181.928 22.377 183.246 22.8105 184.254 23.3145C185.262 23.8184 186.006 24.4277 186.486 25.1426C186.979 25.8457 187.225 26.707 187.225 27.7266C187.225 29.4258 186.545 30.791 185.186 31.8223C183.826 32.8418 182.062 33.3516 179.895 33.3516C178.371 33.3516 177.023 33.082 175.852 32.543C174.68 32.0039 173.76 31.2539 173.092 30.293C172.436 29.3203 172.107 28.2715 172.107 27.1465H175.359C175.418 28.2363 175.852 29.1035 176.66 29.748C177.48 30.3809 178.559 30.6973 179.895 30.6973C181.125 30.6973 182.109 30.4512 182.848 29.959C183.598 29.4551 183.973 28.7871 183.973 27.9551ZM195.873 9.375V13.9805H199.424V16.4941H195.873V28.2891C195.873 29.0508 196.031 29.625 196.348 30.0117C196.664 30.3867 197.203 30.5742 197.965 30.5742C198.34 30.5742 198.855 30.5039 199.512 30.3633V33C198.656 33.2344 197.824 33.3516 197.016 33.3516C195.562 33.3516 194.467 32.9121 193.729 32.0332C192.99 31.1543 192.621 29.9062 192.621 28.2891V16.4941H189.158V13.9805H192.621V9.375H195.873ZM207.053 25.793C207.076 24.3984 207.234 23.2969 207.527 22.4883C207.82 21.6797 208.418 20.7832 209.32 19.7988L211.623 17.4258C212.607 16.3125 213.1 15.1172 213.1 13.8398C213.1 12.6094 212.777 11.6484 212.133 10.957C211.488 10.2539 210.551 9.90234 209.32 9.90234C208.125 9.90234 207.164 10.2188 206.438 10.8516C205.711 11.4844 205.348 12.334 205.348 13.4004H202.096C202.119 11.502 202.793 9.97266 204.117 8.8125C205.453 7.64062 207.188 7.05469 209.32 7.05469C211.535 7.05469 213.258 7.65234 214.488 8.84766C215.73 10.0312 216.352 11.6602 216.352 13.7344C216.352 15.7852 215.402 17.8066 213.504 19.7988L211.588 21.6973C210.732 22.6465 210.305 24.0117 210.305 25.793H207.053ZM206.912 31.3652C206.912 30.8379 207.07 30.3984 207.387 30.0469C207.715 29.6836 208.195 29.502 208.828 29.502C209.461 29.502 209.941 29.6836 210.27 30.0469C210.598 30.3984 210.762 30.8379 210.762 31.3652C210.762 31.8926 210.598 32.332 210.27 32.6836C209.941 33.0234 209.461 33.1934 208.828 33.1934C208.195 33.1934 207.715 33.0234 207.387 32.6836C207.07 32.332 206.912 31.8926 206.912 31.3652Z" fill="#333333"/>
</svg>
