<svg width="30" height="30" viewBox="0 0 30 30" fill="none" xmlns="http://www.w3.org/2000/svg">
<path d="M15 0C6.72915 0 0 6.72915 0 15C0 23.2708 6.72915 29.9999 15 29.9999C23.2708 29.9999 29.9999 23.2708 29.9999 15C29.9999 6.72915 23.2709 0 15 0ZM15 28.6956C7.4478 28.6956 1.30433 22.5521 1.30433 15C1.30433 7.4478 7.4478 1.30433 15 1.30433C22.5521 1.30433 28.6956 7.4478 28.6956 15C28.6956 22.5521 22.5521 28.6956 15 28.6956Z" fill="#4F4F4F"/>
<path d="M14.9998 14.3479C10.325 14.3479 6.52148 18.1513 6.52148 22.8261C6.52148 23.1861 6.81368 23.4783 7.17368 23.4783C7.53368 23.4783 7.82587 23.1861 7.82587 22.8261C7.82587 18.87 11.0437 15.6522 14.9998 15.6522C18.9558 15.6522 22.1736 18.87 22.1736 22.8261C22.1736 23.1861 22.4658 23.4783 22.8258 23.4783C23.1858 23.4783 23.478 23.1861 23.478 22.8261C23.478 18.1513 19.6746 14.3479 14.9998 14.3479Z" fill="#4F4F4F"/>
<path d="M14.9998 3.91304C12.4824 3.91304 10.4346 5.96084 10.4346 8.47827C10.4346 10.9957 12.4824 13.0435 14.9998 13.0435C17.5172 13.0435 19.565 10.9956 19.565 8.47827C19.565 5.96091 17.5172 3.91304 14.9998 3.91304ZM14.9998 11.7391C13.2024 11.7391 11.739 10.2756 11.739 8.47827C11.739 6.6809 13.2024 5.21743 14.9998 5.21743C16.7972 5.21743 18.2606 6.6809 18.2606 8.47827C18.2606 10.2756 16.7972 11.7391 14.9998 11.7391Z" fill="#4F4F4F"/>
</svg>
