<svg width="17" height="17" viewBox="0 0 17 17" fill="none" xmlns="http://www.w3.org/2000/svg">
<path d="M13.7929 16.4498L8.5 11.1568L3.20713 16.4498C2.47341 17.1834 1.28392 17.1834 0.550195 16.4498C-0.183398 15.7161 -0.183398 14.5266 0.550195 13.7929L5.84319 8.5L0.550195 3.20713C-0.183398 2.47341 -0.183398 1.28392 0.550195 0.550195C1.28392 -0.183398 2.47341 -0.183398 3.20713 0.550195L8.5 5.84319L13.7929 0.550195C14.5266 -0.183398 15.7161 -0.183398 16.4498 0.550195C17.1834 1.28392 17.1834 2.47341 16.4498 3.20713L11.1568 8.5L16.4498 13.7929C17.1834 14.5266 17.1834 15.7161 16.4498 16.4498C15.7161 17.1834 14.5266 17.1834 13.7929 16.4498V16.4498Z" fill="#333333"/>
</svg>
